<svg xmlns="http://www.w3.org/2000/svg" viewBox="0 0 1683.32 712.14"><defs><style>.cls-1{fill:#fff;stroke:#fff;stroke-width:17.35px;}</style></defs><g id="Layer_2" data-name="Layer 2"><g id="Layer_2-2" data-name="Layer 2"><path class="cls-1" d="M1673.55,356.52,1228,371.25H443.53L10.3,357c-2.17,0-2.17-4,0-4.07l433.23-14.22H1228l445.59,14.73a1.62,1.62,0,0,1,0,3.07Z"/><path class="cls-1" d="M1171.08,427.65h-15.62a9.1,9.1,0,0,0-8.9,7.12c-31.15,139.63-156,244.31-304.88,244.31S567.85,574.4,536.78,434.77a9.08,9.08,0,0,0-8.89-7.12H512.25a1.52,1.52,0,0,0-1.52,1.52,1.32,1.32,0,0,0,0,.28c34.73,182.76,211,302.76,393.79,268a336.82,336.82,0,0,0,268-268,1.51,1.51,0,0,0-1.21-1.77A1.33,1.33,0,0,0,1171.08,427.65Z"/><path class="cls-1" d="M512.25,284.49h15.64a9.09,9.09,0,0,0,8.89-7.14c31.07-139.61,156-244.29,304.9-244.29s273.73,104.68,304.88,244.29a9.1,9.1,0,0,0,8.9,7.14h15.62a1.53,1.53,0,0,0,1.52-1.52,1.33,1.33,0,0,0,0-.28c-34.73-182.76-211-302.76-393.79-268a336.84,336.84,0,0,0-268,268,1.52,1.52,0,0,0,1.21,1.77A1.43,1.43,0,0,0,512.25,284.49Z"/></g></g></svg>