<svg xmlns="http://www.w3.org/2000/svg" viewBox="0 0 3001.58 596.37"><defs><style>.cls-1{fill:#fff;stroke:#fff;stroke-width:12.65px;}</style></defs><g id="Layer_2" data-name="Layer 2"><g id="Layer_1-2" data-name="Layer 1"><g id="Layer_1-3" data-name="Layer 1"><path class="cls-1" d="M367.74,243.61h11.4a6.63,6.63,0,0,0,6.48-5.2C408.26,136.65,499.35,60.34,607.87,60.34s199.52,76.31,222.22,178.07a6.64,6.64,0,0,0,6.49,5.2H848a1.11,1.11,0,0,0,1.11-1.1,1.49,1.49,0,0,0,0-.21C823.74,109.08,695.23,21.62,562,46.93A245.52,245.52,0,0,0,366.65,242.3a1.1,1.1,0,0,0,.88,1.29Z"/><path class="cls-1" d="M848,348H836.58a6.64,6.64,0,0,0-6.49,5.19c-22.7,101.78-113.71,178.08-222.22,178.08s-199.61-76.3-222.25-178.08a6.62,6.62,0,0,0-6.48-5.19h-11.4a1.11,1.11,0,0,0-1.11,1.11,1.49,1.49,0,0,0,0,.21C392,482.49,520.47,570,653.68,544.64A245.5,245.5,0,0,0,849.05,349.28a1.12,1.12,0,0,0-.88-1.3Z"/><path class="cls-1" d="M1219.86,296.12l-324.8,10.73H323.29L7.51,296.47c-1.58,0-1.58-2.92,0-3l315.78-10.37H895.06l324.8,10.74a1.19,1.19,0,0,1,.72,1.54A1.27,1.27,0,0,1,1219.86,296.12Z"/><path class="cls-1" d="M1669.16,590a8.35,8.35,0,0,1-6.48-2.71l-.3-.29a8.23,8.23,0,0,1-2.65-6.48v-224l-99.24,139.84a8.48,8.48,0,0,1-7.6,3.73,8.19,8.19,0,0,1-7.45-3.81l-99.17-139.76V580.64a8.27,8.27,0,0,1-2.68,6.44,9,9,0,0,1-6.87,2.94,8.25,8.25,0,0,1-6.44-2.64l-.34-.34a8.15,8.15,0,0,1-2.64-6.43V327.23c0-4.88,1.79-7.29,6.61-8.86a11.9,11.9,0,0,1,3.59-.64c1.7,0,4,.49,6.69,4.3l108.7,153.14L1661.79,322c2.65-3.81,4.92-4.3,6.62-4.3a13,13,0,0,1,3.71.64c4.76,1.58,6.58,4,6.58,8.86V580.61a8.3,8.3,0,0,1-2.71,6.48A9,9,0,0,1,1669.16,590Z"/><path class="cls-1" d="M1908.09,589.92c-37.84,0-69.22-13-96-39.76s-39.75-58.14-39.75-96,13-69.44,39.77-96.18,58.13-39.76,96-39.76,69.43,13,96.18,39.76S2044,416.21,2044,454.18s-13,69.23-39.75,96S1946.05,589.92,1908.09,589.92Zm0-253.09c-32.18,0-60.08,11.58-82.93,34.42S1791,421.85,1791,454.18a113.81,113.81,0,0,0,34.19,82.9c22.88,22.74,50.79,34.25,82.95,34.25s60.21-11.51,82.92-34.23,34.43-50.74,34.43-82.92S2013.85,394,1991,371.24,1940.38,336.83,1908.09,336.83Z"/><path class="cls-1" d="M2341.54,589.58a8.58,8.58,0,0,1-7.48-3.72L2156.2,354.92V580.59a8.28,8.28,0,0,1-2.69,6.44,9,9,0,0,1-6.87,2.94,8.23,8.23,0,0,1-6.43-2.64l-.31-.3a8.21,8.21,0,0,1-2.67-6.44V326.91c0-4.76,1.7-7.15,6.35-8.7a12.49,12.49,0,0,1,3.91-.75c1.81,0,3.86.48,6.52,3.92l179.28,232.78v-227a8.87,8.87,0,0,1,8.79-8.61,8,8,0,0,1,6,2.59,8.25,8.25,0,0,1,2.57,6V580.45c0,4.73-1.69,7.1-6.31,8.64A8.3,8.3,0,0,1,2341.54,589.58Z"/><path class="cls-1" d="M2489.73,589.86a8.3,8.3,0,0,1-6.45-2.69l-.34-.34a8.07,8.07,0,0,1-2.61-6.35V327.31a9,9,0,0,1,2.82-6.56,8.37,8.37,0,0,1,6.57-2.83h177.45a9.55,9.55,0,0,1,8.67,13.53,9.12,9.12,0,0,1-8.47,5.45H2499.31V444.41h125.21a9.49,9.49,0,0,1,0,19H2499.31V570.9h167.87a9.68,9.68,0,0,1,9.58,9.58,8.33,8.33,0,0,1-2.69,6.45,9.14,9.14,0,0,1-6.89,3Z"/><path class="cls-1" d="M2859,589.92a8,8,0,0,1-6.32-2.59l-.33-.33c-1.77-1.62-3.62-6.33-3.62-6.33V488L2750.37,332a9.15,9.15,0,0,1-1.24-6.88v-.13a9.6,9.6,0,0,1,4.21-5.77l.23-.14a7.76,7.76,0,0,1,2.8-1.17,9.63,9.63,0,0,1,3.63.06h.79s4.54,2.56,5.87,4.68l92.24,145.62,92.48-145.66c1.25-2.15,3.34-3.69,5.76-3.06h.25c.64-1.31,1.28-1.38,1.93-1.37a8.85,8.85,0,0,1,4.74,1.41l.16.11a8.71,8.71,0,0,1,3.94,5.69,9.09,9.09,0,0,1-1.25,7.07l-99.2,156v92.21a6.24,6.24,0,0,1-2.06,6.32A8.8,8.8,0,0,1,2859,589.92Z"/><path class="cls-1" d="M1436.63,278.35a8.77,8.77,0,0,1-9-8.58c0-.2-.36-.59-.36-.59v-118a8.71,8.71,0,0,1,8.6-8.82l.6,0h90.87c21.59,0,40-4.25,54.73-12.69,18.1-10,27-25.36,27-46.84s-8.79-36.78-26.88-46.8C1567.43,28,1549,23.83,1527.38,23.83h-90.23a9,9,0,0,1-9.11-7.92,8.69,8.69,0,0,1,8.66-9.47h90.77s46.07,4.65,63.24,14.14c23.94,13.15,36.6,34.78,36.6,62.64s-12.64,49.5-36.61,62.66c-17.11,9.69-38.36,14.59-63.25,13.93h-82.76V269.16c1.13,4.84-2.61,8.95-7.45,9.18Z"/><path class="cls-1" d="M1786.22,278.24a107.42,107.42,0,0,1-107.52-107.3V15.44a8.6,8.6,0,0,1,8.3-8.89h.59a8.42,8.42,0,0,1,8.52,8.31c0,.19,0,.38,0,.58v155.5a89.34,89.34,0,0,0,178.67,2.38c0-.79,0-1.59,0-2.38V15.73a9.49,9.49,0,0,1,19,0V170.92a107.44,107.44,0,0,1-107.51,107.31Z"/><path class="cls-1" d="M1968.71,278.39a8.94,8.94,0,0,1-9.18-8.62c0-.2,0-.4.61-.59V15.58a8,8,0,0,1,8-9.17h.59a8.67,8.67,0,0,1,8.77,8.59,2.9,2.9,0,0,0,0,.58V261H2150a8.16,8.16,0,0,1,9.35,8,9,9,0,0,1-8.6,9.35c-.25,0-.5,0-.75,0Z"/><path class="cls-1" d="M2323.37,278.35c-47.43,0-87.73-12-119.81-35.66a8.66,8.66,0,0,1-4-7.26,8.87,8.87,0,0,1,8.56-9.17h.61a10,10,0,0,1,4.39,1.05l.56.27.47.36c28.81,21.53,65.54,32.46,109.19,32.46,26.88,0,50.47-5.72,70-17,26.67-15.15,29.75-31,29.75-41.66a24.11,24.11,0,0,0-7.19-17.58l-.19-.21c-4.46-5.15-11.62-9.82-21.2-13.74-12.81-5.5-37.45-11.68-73.13-18.34-37.11-7.19-62.16-13.71-76.53-19.92-12.16-5.2-21.5-11.47-27.79-18.63A43.21,43.21,0,0,1,2205.28,83a53.19,53.19,0,0,1,8.92-28.81A89.74,89.74,0,0,1,2238,29.94l.13-.1C2261.3,14.3,2291,6.41,2326.22,6.41c23.08,0,44,3.16,62,9.48s33.2,15.14,44.38,26a9.19,9.19,0,0,1,2.74,6.58,8.48,8.48,0,0,1-8.18,8.76h-.6a9.18,9.18,0,0,1-6.45-2.61c-9.36-8.82-22.14-16.11-38.12-21.73s-35-8.58-55.8-8.58c-31.62,0-57.76,6.88-77.73,20.44a66.73,66.73,0,0,0-18.77,18.85,36.68,36.68,0,0,0-6.15,19.4,26.64,26.64,0,0,0,7,18.18c4.5,5.24,11.68,10,21.34,14.23,13.05,5.49,37.59,11.64,73,18.28,37.3,7.19,62.31,13.71,76.45,19.89,12.24,5,21.57,11.07,27.88,18.26A42.83,42.83,0,0,1,2441,201.72c0,23.47-13,42.82-38.53,57.51C2379.93,271.9,2353.32,278.35,2323.37,278.35Z"/><path class="cls-1" d="M2719,278.35a8.83,8.83,0,0,1-8.1-5.13l-.25-.52L2610.05,38.55,2509.71,273.07h0a9.09,9.09,0,0,1-17.39-4,7.39,7.39,0,0,1,1-3.72l.17-.3.19-.41,108.2-253.22A8.83,8.83,0,0,1,2610,6.33a9.17,9.17,0,0,1,8.46,5l.3.65,108.09,253,.19.32a7.31,7.31,0,0,1,1.06,3.76,8.88,8.88,0,0,1-8.43,9.29Z"/><path class="cls-1" d="M2986.51,277.15a9.08,9.08,0,0,1-7.44-3.69l-89.64-114.11-3.66.22c-2.65.16-5.25.24-7.7.24h-81.51V269.16s-3.2,9-8.15,9a9.35,9.35,0,0,1-9.24-8.95V151.32a9,9,0,0,1,8.79-8.79,1.2,1.2,0,0,0,.61-.11h92a45.12,45.12,0,0,0,5.55-.1c1,0,2-.12,3.08-.22l3.24-.32c2.75-.3,5.39-.64,7.91-1l2.5-.41.87-.16A91.42,91.42,0,0,0,2933.41,130c18.38-10.06,27.3-25.3,27.3-46.72s-8.76-36.72-26.88-46.71c-14.72-8.09-54.64-12.76-54.64-12.76h-95.5l-2.83-3.6-.28-.55a9.48,9.48,0,0,1-1-4.34,8.58,8.58,0,0,1,8.25-8.9c.21,0,.42,0,.62,0H2878c24.68,0,45.85,4.72,63,14.17,23.85,13.09,36.44,34.63,36.44,62.38s-12.59,49.27-36.45,62.37a102.54,102.54,0,0,1-20.91,8.48l-10,2.92,83.78,106.3.42.8a10.08,10.08,0,0,1,.95,4.22,8.65,8.65,0,0,1-8.21,9.06Z"/></g></g></g></svg>